# xmcd
#
# Track frame offsets: 
#        150
#        18066
#        43202
#        58044
#        76486
#        92563
#        110208
#        125297
#        138458
#        156989
#        186484
#        202688
#        222252
#
# Disc length: 3263 seconds
#
# Revision: 0
# Processed by: cddbd v1.5.2PL0 Copyright (c) Steve Scherf et al.
# Submitted via: ExactAudioCopy v0.95b4
#
DISCID=b60cbd0d
DTITLE=Kyla Brox - Beware
DYEAR=2003
DGENRE=Blues
TTITLE0=Candice
TTITLE1=Damn Your Eyes
TTITLE2=Lonesome Stranger
TTITLE3=Beware
TTITLE4=I Just Wanna Make Love To You
TTITLE5=Mysterious Ways
TTITLE6=I Can't Resist
TTITLE7=Sick And Tired
TTITLE8=Take Me To The River
TTITLE9=Breaking Up Somebody's Home
TTITLE10=Feel My Pain
TTITLE11=Heard It Through The Grape Vine
TTITLE12=Soulful Dress
EXTD=
EXTT0=
EXTT1=
EXTT2=
EXTT3=
EXTT4=
EXTT5=
EXTT6=
EXTT7=
EXTT8=
EXTT9=
EXTT10=
EXTT11=
EXTT12=
PLAYORDER=
